<mxfile host="Electron" agent="Mozilla/5.0 (Windows NT 10.0; Win64; x64) AppleWebKit/537.36 (KHTML, like Gecko) draw.io/28.0.4 Chrome/138.0.7204.97 Electron/37.2.1 Safari/537.36" version="28.0.4">
  <diagram name="Page-1" id="Q8YvKueqASrhTfLpZtgE">
    <mxGraphModel dx="3096" dy="1611" grid="1" gridSize="10" guides="1" tooltips="1" connect="1" arrows="1" fold="1" page="1" pageScale="1" pageWidth="850" pageHeight="1100" math="0" shadow="0">
      <root>
        <mxCell id="0" />
        <mxCell id="1" parent="0" />
        <mxCell id="1Fnm3Keq7vRgcPUCOSkI-1" value="&lt;font style=&quot;font-size: 40px;&quot;&gt;&lt;b style=&quot;&quot;&gt;Integration Model&lt;/b&gt;&lt;/font&gt;" style="text;html=1;align=center;verticalAlign=middle;whiteSpace=wrap;rounded=0;labelBackgroundColor=none;" vertex="1" parent="1">
          <mxGeometry x="300" y="20" width="392" height="30" as="geometry" />
        </mxCell>
        <mxCell id="1Fnm3Keq7vRgcPUCOSkI-2" value="crm_cust_info" style="swimlane;fontStyle=0;childLayout=stackLayout;horizontal=1;startSize=30;horizontalStack=0;resizeParent=1;resizeParentMax=0;resizeLast=0;collapsible=1;marginBottom=0;whiteSpace=wrap;html=1;rounded=1;fontSize=26;labelBackgroundColor=none;fillColor=#dae8fc;strokeColor=#6c8ebf;" vertex="1" parent="1">
          <mxGeometry x="160" y="455" width="242" height="110" as="geometry" />
        </mxCell>
        <mxCell id="1Fnm3Keq7vRgcPUCOSkI-3" value="cst_id" style="text;align=left;verticalAlign=middle;spacingLeft=4;spacingRight=4;overflow=hidden;points=[[0,0.5],[1,0.5]];portConstraint=eastwest;rotatable=0;whiteSpace=wrap;html=1;fontSize=26;labelBackgroundColor=none;" vertex="1" parent="1Fnm3Keq7vRgcPUCOSkI-2">
          <mxGeometry y="30" width="242" height="40" as="geometry" />
        </mxCell>
        <mxCell id="1Fnm3Keq7vRgcPUCOSkI-35" value="cst_key" style="text;align=left;verticalAlign=middle;spacingLeft=4;spacingRight=4;overflow=hidden;points=[[0,0.5],[1,0.5]];portConstraint=eastwest;rotatable=0;whiteSpace=wrap;html=1;fontSize=26;labelBackgroundColor=none;" vertex="1" parent="1Fnm3Keq7vRgcPUCOSkI-2">
          <mxGeometry y="70" width="242" height="40" as="geometry" />
        </mxCell>
        <mxCell id="1Fnm3Keq7vRgcPUCOSkI-6" value="&lt;font style=&quot;font-size: 20px;&quot;&gt;Customer Information&lt;/font&gt;" style="text;html=1;align=center;verticalAlign=middle;whiteSpace=wrap;rounded=0;" vertex="1" parent="1">
          <mxGeometry x="180" y="430" width="202" height="30" as="geometry" />
        </mxCell>
        <mxCell id="1Fnm3Keq7vRgcPUCOSkI-18" value="crm_prd_info" style="swimlane;fontStyle=0;childLayout=stackLayout;horizontal=1;startSize=30;horizontalStack=0;resizeParent=1;resizeParentMax=0;resizeLast=0;collapsible=1;marginBottom=0;whiteSpace=wrap;html=1;rounded=1;fontSize=26;labelBackgroundColor=none;fillColor=#dae8fc;strokeColor=#6c8ebf;" vertex="1" parent="1">
          <mxGeometry x="169" y="215" width="242" height="70" as="geometry" />
        </mxCell>
        <mxCell id="1Fnm3Keq7vRgcPUCOSkI-19" value="prd_key" style="text;align=left;verticalAlign=middle;spacingLeft=4;spacingRight=4;overflow=hidden;points=[[0,0.5],[1,0.5]];portConstraint=eastwest;rotatable=0;whiteSpace=wrap;html=1;fontSize=26;labelBackgroundColor=none;" vertex="1" parent="1Fnm3Keq7vRgcPUCOSkI-18">
          <mxGeometry y="30" width="242" height="40" as="geometry" />
        </mxCell>
        <mxCell id="1Fnm3Keq7vRgcPUCOSkI-22" value="&lt;font style=&quot;font-size: 20px;&quot;&gt;Current &amp;amp; History Product Information&lt;/font&gt;" style="text;html=1;align=center;verticalAlign=middle;whiteSpace=wrap;rounded=0;" vertex="1" parent="1">
          <mxGeometry x="120" y="190" width="340" height="30" as="geometry" />
        </mxCell>
        <mxCell id="1Fnm3Keq7vRgcPUCOSkI-23" value="crm_prd_info" style="swimlane;fontStyle=0;childLayout=stackLayout;horizontal=1;startSize=30;horizontalStack=0;resizeParent=1;resizeParentMax=0;resizeLast=0;collapsible=1;marginBottom=0;whiteSpace=wrap;html=1;rounded=1;fontSize=26;labelBackgroundColor=none;fillColor=#dae8fc;strokeColor=#6c8ebf;" vertex="1" parent="1">
          <mxGeometry x="-241" y="320" width="242" height="110" as="geometry" />
        </mxCell>
        <mxCell id="1Fnm3Keq7vRgcPUCOSkI-24" value="prd_key" style="text;align=left;verticalAlign=middle;spacingLeft=4;spacingRight=4;overflow=hidden;points=[[0,0.5],[1,0.5]];portConstraint=eastwest;rotatable=0;whiteSpace=wrap;html=1;fontSize=26;labelBackgroundColor=none;" vertex="1" parent="1Fnm3Keq7vRgcPUCOSkI-23">
          <mxGeometry y="30" width="242" height="40" as="geometry" />
        </mxCell>
        <mxCell id="1Fnm3Keq7vRgcPUCOSkI-27" value="cst_id" style="text;align=left;verticalAlign=middle;spacingLeft=4;spacingRight=4;overflow=hidden;points=[[0,0.5],[1,0.5]];portConstraint=eastwest;rotatable=0;whiteSpace=wrap;html=1;fontSize=26;labelBackgroundColor=none;" vertex="1" parent="1Fnm3Keq7vRgcPUCOSkI-23">
          <mxGeometry y="70" width="242" height="40" as="geometry" />
        </mxCell>
        <mxCell id="1Fnm3Keq7vRgcPUCOSkI-25" value="&lt;font style=&quot;font-size: 20px;&quot;&gt;Transactional Records about Sales &amp;amp; Orders&lt;/font&gt;" style="text;html=1;align=center;verticalAlign=middle;whiteSpace=wrap;rounded=0;" vertex="1" parent="1">
          <mxGeometry x="-260" y="285" width="310" height="30" as="geometry" />
        </mxCell>
        <mxCell id="1Fnm3Keq7vRgcPUCOSkI-28" style="edgeStyle=orthogonalEdgeStyle;rounded=0;orthogonalLoop=1;jettySize=auto;html=1;exitX=1;exitY=0.5;exitDx=0;exitDy=0;entryX=0;entryY=0.106;entryDx=0;entryDy=0;entryPerimeter=0;" edge="1" parent="1" source="1Fnm3Keq7vRgcPUCOSkI-24" target="1Fnm3Keq7vRgcPUCOSkI-19">
          <mxGeometry relative="1" as="geometry" />
        </mxCell>
        <mxCell id="1Fnm3Keq7vRgcPUCOSkI-29" style="edgeStyle=orthogonalEdgeStyle;rounded=0;orthogonalLoop=1;jettySize=auto;html=1;exitX=1;exitY=0.5;exitDx=0;exitDy=0;" edge="1" parent="1" source="1Fnm3Keq7vRgcPUCOSkI-27" target="1Fnm3Keq7vRgcPUCOSkI-3">
          <mxGeometry relative="1" as="geometry" />
        </mxCell>
        <mxCell id="1Fnm3Keq7vRgcPUCOSkI-30" value="erp_cust_info" style="swimlane;fontStyle=0;childLayout=stackLayout;horizontal=1;startSize=30;horizontalStack=0;resizeParent=1;resizeParentMax=0;resizeLast=0;collapsible=1;marginBottom=0;whiteSpace=wrap;html=1;rounded=1;fontSize=26;labelBackgroundColor=none;fillColor=#fff2cc;strokeColor=#d6b656;" vertex="1" parent="1">
          <mxGeometry x="747.5" y="420" width="242" height="70" as="geometry" />
        </mxCell>
        <mxCell id="1Fnm3Keq7vRgcPUCOSkI-31" value="cid" style="text;align=left;verticalAlign=middle;spacingLeft=4;spacingRight=4;overflow=hidden;points=[[0,0.5],[1,0.5]];portConstraint=eastwest;rotatable=0;whiteSpace=wrap;html=1;fontSize=26;labelBackgroundColor=none;" vertex="1" parent="1Fnm3Keq7vRgcPUCOSkI-30">
          <mxGeometry y="30" width="242" height="40" as="geometry" />
        </mxCell>
        <mxCell id="1Fnm3Keq7vRgcPUCOSkI-32" value="&lt;font style=&quot;font-size: 20px;&quot;&gt;Extra Customer Information (Birthdate)&lt;/font&gt;" style="text;html=1;align=center;verticalAlign=middle;whiteSpace=wrap;rounded=0;" vertex="1" parent="1">
          <mxGeometry x="697.5" y="395" width="347" height="30" as="geometry" />
        </mxCell>
        <mxCell id="1Fnm3Keq7vRgcPUCOSkI-36" style="rounded=0;orthogonalLoop=1;jettySize=auto;html=1;entryX=1.006;entryY=-0.056;entryDx=0;entryDy=0;entryPerimeter=0;edgeStyle=orthogonalEdgeStyle;" edge="1" parent="1" source="1Fnm3Keq7vRgcPUCOSkI-31" target="1Fnm3Keq7vRgcPUCOSkI-35">
          <mxGeometry relative="1" as="geometry" />
        </mxCell>
        <mxCell id="1Fnm3Keq7vRgcPUCOSkI-37" value="erp_loc_a101" style="swimlane;fontStyle=0;childLayout=stackLayout;horizontal=1;startSize=30;horizontalStack=0;resizeParent=1;resizeParentMax=0;resizeLast=0;collapsible=1;marginBottom=0;whiteSpace=wrap;html=1;rounded=1;fontSize=26;labelBackgroundColor=none;fillColor=#fff2cc;strokeColor=#d6b656;" vertex="1" parent="1">
          <mxGeometry x="750" y="590" width="242" height="70" as="geometry" />
        </mxCell>
        <mxCell id="1Fnm3Keq7vRgcPUCOSkI-38" value="cid" style="text;align=left;verticalAlign=middle;spacingLeft=4;spacingRight=4;overflow=hidden;points=[[0,0.5],[1,0.5]];portConstraint=eastwest;rotatable=0;whiteSpace=wrap;html=1;fontSize=26;labelBackgroundColor=none;" vertex="1" parent="1Fnm3Keq7vRgcPUCOSkI-37">
          <mxGeometry y="30" width="242" height="40" as="geometry" />
        </mxCell>
        <mxCell id="1Fnm3Keq7vRgcPUCOSkI-39" style="edgeStyle=orthogonalEdgeStyle;rounded=0;orthogonalLoop=1;jettySize=auto;html=1;entryX=0.985;entryY=-0.081;entryDx=0;entryDy=0;entryPerimeter=0;" edge="1" parent="1" source="1Fnm3Keq7vRgcPUCOSkI-38" target="1Fnm3Keq7vRgcPUCOSkI-35">
          <mxGeometry relative="1" as="geometry" />
        </mxCell>
        <mxCell id="1Fnm3Keq7vRgcPUCOSkI-40" value="&lt;font style=&quot;font-size: 20px;&quot;&gt;Location of Customers (Country)&lt;/font&gt;" style="text;html=1;align=center;verticalAlign=middle;whiteSpace=wrap;rounded=0;" vertex="1" parent="1">
          <mxGeometry x="697.5" y="565" width="347" height="30" as="geometry" />
        </mxCell>
        <mxCell id="1Fnm3Keq7vRgcPUCOSkI-44" value="erp_px_cat_g1v2" style="swimlane;fontStyle=0;childLayout=stackLayout;horizontal=1;startSize=30;horizontalStack=0;resizeParent=1;resizeParentMax=0;resizeLast=0;collapsible=1;marginBottom=0;whiteSpace=wrap;html=1;rounded=1;fontSize=26;labelBackgroundColor=none;fillColor=#fff2cc;strokeColor=#d6b656;" vertex="1" parent="1">
          <mxGeometry x="750" y="215" width="242" height="70" as="geometry" />
        </mxCell>
        <mxCell id="1Fnm3Keq7vRgcPUCOSkI-45" value="cid" style="text;align=left;verticalAlign=middle;spacingLeft=4;spacingRight=4;overflow=hidden;points=[[0,0.5],[1,0.5]];portConstraint=eastwest;rotatable=0;whiteSpace=wrap;html=1;fontSize=26;labelBackgroundColor=none;" vertex="1" parent="1Fnm3Keq7vRgcPUCOSkI-44">
          <mxGeometry y="30" width="242" height="40" as="geometry" />
        </mxCell>
        <mxCell id="1Fnm3Keq7vRgcPUCOSkI-50" value="" style="rounded=1;whiteSpace=wrap;html=1;fillColor=none;dashed=1;" vertex="1" parent="1">
          <mxGeometry x="530" y="77.5" width="703" height="650" as="geometry" />
        </mxCell>
        <mxCell id="1Fnm3Keq7vRgcPUCOSkI-46" value="&lt;font style=&quot;font-size: 20px;&quot;&gt;Product Categories&lt;/font&gt;" style="text;html=1;align=center;verticalAlign=middle;whiteSpace=wrap;rounded=0;" vertex="1" parent="1">
          <mxGeometry x="700" y="190" width="347" height="30" as="geometry" />
        </mxCell>
        <mxCell id="1Fnm3Keq7vRgcPUCOSkI-47" style="edgeStyle=orthogonalEdgeStyle;rounded=0;orthogonalLoop=1;jettySize=auto;html=1;entryX=1;entryY=0.5;entryDx=0;entryDy=0;" edge="1" parent="1" source="1Fnm3Keq7vRgcPUCOSkI-45" target="1Fnm3Keq7vRgcPUCOSkI-19">
          <mxGeometry relative="1" as="geometry" />
        </mxCell>
        <mxCell id="1Fnm3Keq7vRgcPUCOSkI-48" value="" style="rounded=1;whiteSpace=wrap;html=1;fillColor=none;dashed=1;" vertex="1" parent="1">
          <mxGeometry x="-270" y="77.5" width="773" height="642.5" as="geometry" />
        </mxCell>
        <mxCell id="1Fnm3Keq7vRgcPUCOSkI-49" value="&lt;font style=&quot;font-size: 32px;&quot;&gt;&lt;b style=&quot;&quot;&gt;CRM&lt;/b&gt;&lt;/font&gt;" style="rounded=1;whiteSpace=wrap;html=1;fillColor=#dae8fc;strokeColor=#6c8ebf;" vertex="1" parent="1">
          <mxGeometry x="25" y="100" width="170" height="50" as="geometry" />
        </mxCell>
        <mxCell id="1Fnm3Keq7vRgcPUCOSkI-51" value="&lt;b&gt;&lt;font style=&quot;font-size: 32px;&quot;&gt;ERP&lt;/font&gt;&lt;/b&gt;" style="rounded=1;whiteSpace=wrap;html=1;fillColor=#fff2cc;strokeColor=#d6b656;" vertex="1" parent="1">
          <mxGeometry x="811" y="95" width="120" height="60" as="geometry" />
        </mxCell>
        <mxCell id="1Fnm3Keq7vRgcPUCOSkI-52" value="&lt;font style=&quot;font-size: 25px;&quot;&gt;&lt;b&gt;Sales&lt;/b&gt;&lt;/font&gt;" style="rounded=1;whiteSpace=wrap;html=1;fillColor=#e1d5e7;strokeColor=#9673a6;" vertex="1" parent="1">
          <mxGeometry x="-241" y="425" width="241" height="35" as="geometry" />
        </mxCell>
        <mxCell id="1Fnm3Keq7vRgcPUCOSkI-53" value="&lt;font style=&quot;font-size: 25px;&quot;&gt;&lt;b&gt;Product&lt;/b&gt;&lt;/font&gt;" style="rounded=1;whiteSpace=wrap;html=1;fillColor=#d5e8d4;strokeColor=#82b366;" vertex="1" parent="1">
          <mxGeometry x="169" y="285" width="241" height="35" as="geometry" />
        </mxCell>
        <mxCell id="1Fnm3Keq7vRgcPUCOSkI-54" value="&lt;font style=&quot;font-size: 25px;&quot;&gt;&lt;b&gt;Product&lt;/b&gt;&lt;/font&gt;" style="rounded=1;whiteSpace=wrap;html=1;fillColor=#d5e8d4;strokeColor=#82b366;" vertex="1" parent="1">
          <mxGeometry x="753" y="285" width="241" height="35" as="geometry" />
        </mxCell>
        <mxCell id="1Fnm3Keq7vRgcPUCOSkI-55" value="&lt;font style=&quot;font-size: 25px;&quot;&gt;&lt;b&gt;Customer&lt;/b&gt;&lt;/font&gt;" style="rounded=1;whiteSpace=wrap;html=1;fillColor=#f8cecc;strokeColor=#b85450;" vertex="1" parent="1">
          <mxGeometry x="161" y="565" width="241" height="35" as="geometry" />
        </mxCell>
        <mxCell id="1Fnm3Keq7vRgcPUCOSkI-56" value="&lt;font style=&quot;font-size: 25px;&quot;&gt;&lt;b&gt;Customer&lt;/b&gt;&lt;/font&gt;" style="rounded=1;whiteSpace=wrap;html=1;fillColor=#f8cecc;strokeColor=#b85450;" vertex="1" parent="1">
          <mxGeometry x="747.5" y="490" width="241" height="35" as="geometry" />
        </mxCell>
        <mxCell id="1Fnm3Keq7vRgcPUCOSkI-57" value="&lt;font style=&quot;font-size: 25px;&quot;&gt;&lt;b&gt;Customer&lt;/b&gt;&lt;/font&gt;" style="rounded=1;whiteSpace=wrap;html=1;fillColor=#f8cecc;strokeColor=#b85450;" vertex="1" parent="1">
          <mxGeometry x="751" y="660" width="241" height="35" as="geometry" />
        </mxCell>
      </root>
    </mxGraphModel>
  </diagram>
</mxfile>
